<svg xmlns="http://www.w3.org/2000/svg" fill="none" viewBox="0 0 272 84" width="272" height="84">
  <title>Stridge</title>
  <svg x="18" y="6" width="72" height="72" viewBox="340 340 400 400">
    <path fill="#FAFAFA" d="M340 540.005C340 650.449 429.53 740 539.995 740C650.459 740 739.989 650.449 739.989 540.005C739.989 429.562 650.459 340 539.995 340C429.53 340 340 429.551 340 540.005ZM599.429 583.398C593.477 582.243 587.417 583.939 582.945 587.795C581.951 588.94 580.914 590.064 579.855 591.165C558.305 613.818 527.853 627.958 494.106 627.958C318.093 627.958 361.216 378.705 539.995 378.705C587.33 378.705 629.902 399.1 659.404 431.572C637.475 419.937 612.435 413.337 585.883 413.337C541.086 413.337 500.685 432.079 472.069 462.153C470.687 463.611 469.315 465.113 467.986 466.625C465.016 471.097 463.968 476.693 465.307 482.094C467.122 489.483 473.074 495.154 480.56 496.602C486.512 497.757 492.572 496.072 497.044 492.205C498.049 491.06 499.075 489.947 500.134 488.835C521.685 466.171 552.136 452.042 585.894 452.042C761.896 452.042 718.784 701.295 540.005 701.295C492.659 701.295 450.097 680.911 420.596 648.429C442.525 660.074 467.554 666.674 494.117 666.674C538.903 666.674 579.304 647.942 607.92 617.847C609.313 616.4 610.674 614.909 612.003 613.386C614.974 608.914 616.022 603.307 614.693 597.928C612.867 590.517 606.915 584.868 599.429 583.409V583.398Z"/>
  </svg>
  <text x="110" y="42" dominant-baseline="central" font-family="-apple-system, BlinkMacSystemFont, 'Segoe UI', Helvetica, Arial, sans-serif" font-size="42" font-weight="700" letter-spacing="-0.5" fill="#FAFAFA">Stridge</text>
</svg>
